<svg width="53" height="30" viewBox="0 0 53 30" fill="none" xmlns="http://www.w3.org/2000/svg">
<path d="M52.8019 24.1176H47.0279V29.8916H52.8019V24.1176Z" fill="white"/>
<path d="M42.1362 20.418L34.7523 2.56966H42.4458H49.8452L42.1362 20.418Z" fill="white"/>
<path d="M7.7709 11.4087C8.20433 10.3251 8.82353 9.36532 9.613 8.52941C10.4025 7.6935 11.3622 7.04334 12.4613 6.57895C13.5604 6.11455 14.7678 5.86687 16.0681 5.86687C17.6316 5.86687 19.0402 6.14551 20.2941 6.71827C20.3096 6.71827 20.3096 6.73375 20.3251 6.73375C22.2136 7.60062 23.6997 9.19505 24.5201 11.0991L32.4768 29.9845L39.2415 29.969L30.2786 7.95666C28.9164 4.59752 26.1146 2.01238 22.6471 0.975232C22.6161 0.975232 22.6006 0.959752 22.5697 0.959752C21.7957 0.696594 20.9443 0.495356 20.0464 0.325077C18.8545 0.108359 17.5387 0 16.0991 0C13.6997 0 11.517 0.402477 9.55108 1.19195C7.58514 1.9969 5.88235 3.06502 4.47368 4.44272C3.06502 5.80495 1.96594 7.39938 1.17647 9.21053C0.386997 11.0062 0 12.9412 0 15.0155V15.0929C0 17.1672 0.417957 19.1022 1.20743 20.9133C2.01238 22.7245 3.11145 24.3034 4.5356 25.6347C5.95975 26.9659 7.63158 28.0186 9.58204 28.7771C11.5325 29.5356 13.6378 29.9226 15.9133 29.9071C17.4149 29.9071 18.7771 29.7833 19.9845 29.5511C21.192 29.3189 22.3065 28.9628 23.3127 28.5139C23.8855 28.2508 24.4427 27.9567 24.969 27.6316L22.5232 21.9814C21.8885 22.4303 21.2384 22.8019 20.6037 23.1269C19.3808 23.7306 17.8793 24.0402 16.1146 24.0557C14.7833 24.0557 13.5759 23.8235 12.4613 23.3437C11.3622 22.8638 10.4025 22.2136 9.62848 21.3932C8.83901 20.5728 8.23529 19.613 7.78638 18.4984C7.33746 17.3994 7.12074 16.2229 7.10526 14.9845V14.9071C7.12074 13.6687 7.33746 12.5077 7.7709 11.4087Z" fill="white"/>
</svg>
