<svg width="200" height="16" viewBox="0 0 200 16" fill="none" xmlns="http://www.w3.org/2000/svg">
<path d="M12.996 12.7776C12.3043 13.7241 11.4671 14.4157 10.557 14.8162C9.64689 15.2166 8.62759 15.435 7.5719 15.435C6.44339 15.435 5.4241 15.253 4.51401 14.8526C3.56753 14.4885 2.80306 13.9425 2.11139 13.2508C1.45613 12.5592 0.946487 11.7583 0.54605 10.8118C0.182017 9.86531 0 8.84602 0 7.71751C0 6.58901 0.182017 5.56972 0.54605 4.62323C0.910084 3.67674 1.41973 2.87587 2.11139 2.1842C2.76665 1.49254 3.56753 0.982891 4.51401 0.582454C5.4605 0.182017 6.4798 0 7.5719 0C8.55479 0 9.50127 0.182017 10.3386 0.509647C11.2122 0.873681 11.9403 1.45613 12.5956 2.25701L11.4671 3.2035C10.9938 2.51183 10.4114 2.00219 9.71969 1.71096C8.99163 1.38333 8.26356 1.23771 7.53549 1.23771C6.58901 1.23771 5.71532 1.41973 4.95085 1.74736C4.18638 2.07499 3.53112 2.54824 2.98507 3.13069C2.43902 3.71314 2.03859 4.40481 1.74736 5.16928C1.45613 5.97015 1.31052 6.80743 1.31052 7.71751C1.31052 8.6276 1.45613 9.46488 1.74736 10.2658C2.03859 11.0666 2.43902 11.7219 2.98507 12.3043C3.53112 12.8868 4.18638 13.3236 4.95085 13.6513C5.71532 13.9789 6.58901 14.1609 7.53549 14.1609C7.89953 14.1609 8.29996 14.1245 8.7004 14.0153C9.10084 13.9425 9.50127 13.7969 9.86531 13.6149C10.2293 13.4328 10.5934 13.178 10.9574 12.9232C11.285 12.632 11.6127 12.3043 11.8675 11.9039L12.996 12.7776Z" fill="white"/>
<path d="M18.6749 7.7539C18.6749 6.6254 18.8569 5.60611 19.221 4.65962C19.585 3.71313 20.0946 2.91226 20.7863 2.22059C21.4416 1.52893 22.2424 1.01928 23.1889 0.618846C24.1354 0.218409 25.1547 0.0363922 26.2468 0.0363922C27.3389 0.0363922 28.3946 0.218409 29.3047 0.618846C30.2512 1.01928 31.0156 1.52893 31.7073 2.22059C32.3626 2.91226 32.8722 3.71313 33.2727 4.65962C33.6367 5.60611 33.8187 6.6254 33.8187 7.7539C33.8187 8.88241 33.6367 9.9017 33.2727 10.8482C32.9086 11.7947 32.399 12.5956 31.7073 13.2872C31.052 13.9789 30.2512 14.4885 29.3047 14.889C28.3582 15.253 27.3389 15.4714 26.2468 15.4714C25.1183 15.4714 24.099 15.2894 23.1889 14.889C22.2424 14.5249 21.478 13.9789 20.7863 13.2872C20.131 12.5956 19.6214 11.7947 19.221 10.8482C18.8569 9.9017 18.6749 8.88241 18.6749 7.7539ZM20.0218 7.7539C20.0218 8.66399 20.1674 9.50127 20.4587 10.3021C20.7499 11.103 21.1503 11.7583 21.6964 12.3407C22.2424 12.9232 22.8977 13.36 23.6622 13.6877C24.4266 14.0153 25.3003 14.1973 26.2468 14.1973C27.1933 14.1973 28.067 14.0153 28.8314 13.6877C29.5959 13.36 30.2512 12.8868 30.7972 12.3043C31.3433 11.7219 31.7437 11.0302 32.0349 10.2657C32.3262 9.46486 32.4718 8.62759 32.4718 7.7175C32.4718 6.80742 32.3262 5.97014 32.0349 5.16927C31.7437 4.36839 31.3433 3.71313 30.7972 3.13068C30.2512 2.54822 29.5959 2.11138 28.8314 1.78375C28.067 1.45612 27.1933 1.27411 26.2468 1.27411C25.3003 1.27411 24.4266 1.45612 23.6622 1.78375C22.8977 2.11138 22.2424 2.58463 21.6964 3.16708C21.1503 3.74953 20.7499 4.4412 20.4587 5.20567C20.1674 6.00654 20.0218 6.84382 20.0218 7.7539Z" fill="white"/>
<path d="M40.8081 0.400436H45.3222C46.5963 0.400436 47.652 0.54605 48.5621 0.87368C49.4357 1.16491 50.1638 1.56534 50.7827 2.07499C51.3651 2.54823 51.8384 3.09429 52.166 3.67674C52.4936 4.25919 52.7484 4.84165 52.9305 5.35129C53.0761 5.89734 53.1853 6.37059 53.2217 6.80743C53.2581 7.24427 53.2945 7.5355 53.2945 7.71751C53.2945 7.89953 53.2581 8.19076 53.2217 8.6276C53.1853 9.06444 53.0761 9.53768 52.9305 10.0837C52.7848 10.6298 52.53 11.1758 52.2024 11.7583C51.8748 12.3407 51.4015 12.8868 50.8191 13.36C50.2366 13.8333 49.5085 14.2337 48.6349 14.5613C47.7612 14.889 46.6691 15.0346 45.395 15.0346H40.8809L40.8081 0.400436ZM42.1915 13.7969H44.9945C45.9774 13.7969 46.8511 13.6877 47.6884 13.4328C48.5257 13.178 49.2537 12.814 49.8726 12.3407C50.4914 11.8311 50.9647 11.2122 51.3287 10.4478C51.6927 9.6833 51.8748 8.77321 51.8748 7.71751C51.8748 6.66182 51.6927 5.75173 51.3287 4.98726C50.9647 4.22279 50.4914 3.60393 49.8726 3.09429C49.2537 2.58464 48.5257 2.2206 47.6884 2.00218C46.8511 1.74736 45.941 1.63815 44.9945 1.63815H42.1915V13.7969Z" fill="white"/>
<path d="M60.466 0.364029H69.4212V1.60174H61.8129V6.80743H68.9115V8.04514H61.8129V13.7605H69.7488V14.9982H60.466V0.364029Z" fill="white"/>
<path d="M74.6269 0.364029H78.3036L81.9075 9.97452H81.9439L85.6571 0.364029H89.1154L83.0724 14.9982H80.4878L74.6269 0.364029Z" fill="white"/>
<path d="M94.9035 0.364029H104.842V3.3491H98.107V6.07936H104.441V9.06443H98.107V12.0495H105.206V15.0346H94.8671V0.364029H94.9035Z" fill="white"/>
<path d="M111.94 0.364029H117.619C118.347 0.364029 119.075 0.436836 119.731 0.582449C120.386 0.728063 120.968 0.982886 121.478 1.31052C121.988 1.63815 122.388 2.11139 122.679 2.69384C122.971 3.2763 123.116 3.96796 123.116 4.84164C123.116 5.86094 122.861 6.77102 122.315 7.46269C121.769 8.19075 121.005 8.62759 119.949 8.84601L123.662 15.0346H119.803L116.746 9.17364H115.144V15.0346H111.904V0.364029H111.94ZM115.18 6.44339H117.073C117.364 6.44339 117.656 6.44339 117.983 6.40699C118.311 6.37058 118.602 6.33418 118.857 6.22497C119.112 6.11576 119.33 5.97015 119.512 5.75173C119.694 5.53331 119.767 5.20568 119.767 4.80524C119.767 4.44121 119.694 4.14998 119.549 3.93156C119.403 3.71314 119.221 3.53112 118.966 3.42191C118.748 3.3127 118.456 3.23989 118.165 3.16709C117.874 3.13068 117.583 3.09428 117.292 3.09428H115.18V6.44339Z" fill="white"/>
<path d="M142.556 0.364029H145.795V14.9982H142.556V0.364029Z" fill="white"/>
<path d="M162.432 4.18639C162.104 3.78595 161.74 3.49472 161.267 3.31271C160.794 3.09429 160.284 2.98508 159.665 2.98508C159.046 2.98508 158.5 3.09429 157.991 3.34911C157.481 3.56753 157.008 3.89516 156.644 4.332C156.28 4.76884 155.952 5.24209 155.77 5.82454C155.552 6.40699 155.442 7.02585 155.442 7.71751C155.442 8.40918 155.552 9.02804 155.77 9.61049C155.988 10.1929 156.28 10.6662 156.644 11.103C157.008 11.5399 157.444 11.8675 157.954 12.0859C158.464 12.3043 159.01 12.45 159.592 12.45C160.248 12.45 160.83 12.3043 161.34 12.0495C161.849 11.7583 162.286 11.3943 162.614 10.8846L165.308 12.8868C164.689 13.7605 163.888 14.3793 162.941 14.8162C161.995 15.2166 161.012 15.435 159.993 15.435C158.864 15.435 157.809 15.253 156.826 14.889C155.843 14.5249 155.042 14.0153 154.314 13.36C153.622 12.7048 153.076 11.8675 152.676 10.921C152.275 9.97452 152.093 8.91883 152.093 7.71751C152.093 6.55261 152.275 5.49691 152.676 4.51402C153.076 3.56753 153.622 2.76666 154.314 2.07499C155.005 1.41973 155.843 0.910084 156.826 0.546051C157.809 0.182017 158.828 0 159.993 0C160.393 0 160.83 0.0364034 161.303 0.10921C161.74 0.182017 162.177 0.291227 162.614 0.473244C163.051 0.655261 163.451 0.873681 163.851 1.1285C164.252 1.41973 164.616 1.74736 164.944 2.1478L162.432 4.18639Z" fill="white"/>
<path d="M190.754 0.364029H193.993V12.0131H199.964V14.9982H190.754V0.364029Z" fill="white"/>
<path d="M135.238 0.364029H126.574V3.23989H131.962V15.0346H135.166V3.23989H135.238V0.364029Z" fill="white"/>
<path d="M178.668 0.364029H175.974L169.64 15.0346H173.207L177.212 4.62322L181.398 15.0346H185.038L178.668 0.364029Z" fill="white"/>
</svg>
